# xmcd CD database file
#
# Track frame offsets:
#	150
#	13478
#	25205
#	43596
#	57916
#	67365
#	81616
#	101914
#	117037
#	132464
#
# Disc length: 2192 seconds
#
# Revision: 0
# Processed by: cddbd v1.5.2PL0 Copyright (c) Steve Scherf et al.
# Submitted via: CDex 1.51
#
DISCID=98088e0a
DTITLE=Dallas Moore - Dark Horse Rider
DYEAR=2015
DGENRE=Country
TTITLE0=Bottle and a Bible
TTITLE1=Raisin' Hell and Slingin' Gravel
TTITLE2=Can't Get Over You
TTITLE3=Ridin' High
TTITLE4=Beats All I've Ever Seen
TTITLE5=Faster 
TTITLE6=When You Come Around
TTITLE7=Trash
TTITLE8=Up On That Mountain
TTITLE9=Dallas Moore - Dark Horse Rider
EXTD=YEAR: 2015
EXTT0=
EXTT1=
EXTT2=
EXTT3=
EXTT4=
EXTT5=
EXTT6=
EXTT7=
EXTT8=
EXTT9=
PLAYORDER=
